<svg id="fathymText" xmlns="http://www.w3.org/2000/svg" viewBox="0 0 319.56 115.74">
     <path
        d="M130.31,191.68h.76v14.84h-1.52c-5.25,0-9.21,1.46-11.85,4.37s-4,7.27-4,13.05v7.63h8.84v14.84h-8.84v42.07H98.88V246.41H90V231.57h8.86v-7.63c0-9.95,2.94-18,8.24-23.6s13-8.67,22.43-8.67h.76Zm256.82,43.86a27.28,27.28,0,0,0-8.26,1.18,19.32,19.32,0,0,0-6.44,3.39,20.57,20.57,0,0,0-6.24-3.31,26.69,26.69,0,0,0-8.4-1.26,25.32,25.32,0,0,0-6,.7,18.71,18.71,0,0,0-5,2v-.43H336.08v51.92h14.84V257.51c0-2.42.33-4.2,1.38-5.37s2.84-1.76,5.76-1.76c3.1,0,4.94.58,6,1.76s1.35,3,1.35,5.37v32.18h14.84V257.51c0-2.42.3-4.2,1.32-5.37s2.78-1.76,5.69-1.76,4.74.58,5.89,1.76,1.6,3,1.6,5.37v32.18h14.84v-33.6a21,21,0,0,0-5-13.37C401,238.62,395.37,235.54,387.13,235.54Zm-137.86.59a28.69,28.69,0,0,0-4,.28,26.58,26.58,0,0,0-3.58.76V212.83H226.81v76.86h14.84V257.52c0-2.43.53-4.07,1.75-5.1s3.12-1.45,5.87-1.45,4.39.43,5.44,1.47,1.43,2.67,1.43,5.08v32.17H271V257.52c0-6.69-2-12-5.76-15.72S256.06,236.13,249.27,236.13Zm-78.49,2.55c4.87,4.57,7.56,11.19,7.56,19.35v31.66H163.5V287.4a22,22,0,0,1-5,2.22,23,23,0,0,1-6.06,1h-1.4a30.66,30.66,0,0,1-9.8-1.45,19.24,19.24,0,0,1-7.27-4.34,17.16,17.16,0,0,1-3.62-5.11,20.15,20.15,0,0,1-1.77-8.56c0-6.55,2.78-11.25,7-14.32s9.85-4.48,15.54-4.48a35.61,35.61,0,0,1,6.55.51,10.87,10.87,0,0,1,5.43,2.43,11.35,11.35,0,0,0-3.4-6.32c-1.95-1.72-4.94-2.87-9.57-2.87l-7.34.12-7.34.12V231.57h14.71C158.87,231.57,165.91,234.1,170.78,238.68Zm-11.71,26.94a18.5,18.5,0,0,0-6.87-.9,18,18,0,0,0-6.7.93,5.62,5.62,0,0,0-3.65,5.71c0,3.22,1.46,4.88,3.49,5.74a18.44,18.44,0,0,0,6.86.9,18,18,0,0,0,6.71-.93,5.62,5.62,0,0,0,3.65-5.71C162.56,268.14,161.09,266.48,159.07,265.62Zm48.14-34.09v-18.7H192.37v18.7h-5.86v14.84h5.86v43.32h14.84V246.37h10.61V231.53H207.21Zm121.94,6.59H313.44l-5.57,16.35-5.57,16.35-5.4-16.35-5.41-16.35H275.08L285,264.3l10,26.19v16.93h14.25V290.49l9.95-26.19Z"
        transform="translate(-90.02 -191.67)" />
</svg>