 <svg id="fathymText" data-name="Layer 1" xmlns="http://www.w3.org/2000/svg" viewBox="0 0 320.56 116.74">

        <path class="cls-1"
            d="M129.55,191.68h0c-18.92,0-30.67,12.37-30.67,32.27v7.63H90v14.84h8.86v42.07h14.84V246.41h8.84V231.57h-8.84v-7.63c0-11.56,5.33-17.42,15.83-17.42h1.52V191.68Z"
            transform="translate(-89.52 -191.17)" />
        <path class="cls-1"
            d="M387.13,235.54c-6.08,0-11.05,1.61-14.7,4.57-3.49-2.73-8.27-4.57-14.64-4.57a22.47,22.47,0,0,0-11.06,2.66v-.43H336.08v51.92h14.84V257.51c0-4.83,1.31-7.13,7.14-7.13,6.2,0,7.35,2.3,7.35,7.13v32.18h14.84V257.51c0-4.83,1.18-7.13,7-7.13s7.49,2.3,7.49,7.13v32.18h14.84v-33.6C409.59,247.83,403.61,235.54,387.13,235.54Z"
            transform="translate(-89.52 -191.17)" />
        <path class="cls-1"
            d="M249.27,236.13a27.15,27.15,0,0,0-7.62,1V212.83H226.81v76.86h14.84V257.52c0-4.87,2.12-6.55,7.62-6.55,5.34,0,6.87,1.72,6.87,6.55v32.17H271V257.52C271,244.13,262.86,236.13,249.27,236.13Z"
            transform="translate(-89.52 -191.17)" />
        <path class="cls-1"
            d="M150.18,231.57H135.47v14.84l14.68-.24c9.26,0,11.95,4.59,13,9.19-2.71-2.55-7.79-2.94-12-2.94-11.39,0-22.54,5.69-22.54,18.8,0,7,2.93,11.28,5.39,13.67,4,3.84,9.71,5.79,17.07,5.79l1.4,0a23.28,23.28,0,0,0,11-3.26v2.29h14.84V258C178.34,241.71,167.55,231.57,150.18,231.57Zm12.38,39.79c0,6.38-6.28,6.64-10.36,6.64-4.5,0-10.35-.19-10.35-6.64s6.28-6.64,10.35-6.64C156.71,264.72,162.56,264.91,162.56,271.36Z"
            transform="translate(-89.52 -191.17)" />
        <polygon class="cls-1"
            points="117.69 40.35 117.69 21.66 102.85 21.66 102.85 40.35 96.98 40.35 96.98 55.19 102.85 55.19 102.85 98.52 117.69 98.52 117.69 55.19 128.3 55.19 128.3 40.35 117.69 40.35" />
        <polygon class="cls-1"
            points="239.63 46.94 223.92 46.94 212.78 79.65 201.97 46.94 185.55 46.94 205.47 99.31 205.47 116.24 219.72 116.24 219.72 99.31 239.63 46.94" />
    </svg>