 <svg id="logo" data-name="Layer 2" xmlns="http://www.w3.org/2000/svg" viewBox="0 0 369.91 416.99">
        <defs>
            <style>
                .cls-1 {
                    fill: #ad1f24;
                }
            </style>
        </defs>
        <path class="cls-1"
            d="M317.81,152.3c21.45,0,41.7,6,57,16.9,16.2,11.5,25.12,27.08,25.12,43.88s-8.92,32.38-25.12,43.88c-15.33,10.9-35.59,16.9-57,16.9s-41.7-6-57-16.9c-16.2-11.5-25.12-27.09-25.12-43.88s8.92-32.38,25.12-43.88c15.34-10.9,35.6-16.9,57-16.9m0,106.26c17.33,0,33.89-4.56,46.64-12.82,13.42-8.7,20.81-20.3,20.81-32.66s-7.39-24-20.81-32.66c-12.75-8.27-29.31-12.82-46.64-12.82s-33.89,4.55-46.64,12.82c-13.42,8.7-20.81,20.3-20.81,32.66s7.39,24,20.81,32.66c12.75,8.26,29.32,12.82,46.64,12.82m0-111.26c-22.47,0-43.76,6.33-59.93,17.82-17.56,12.47-27.23,29.5-27.23,48s9.67,35.49,27.23,48c16.17,11.49,37.46,17.82,59.93,17.82s43.76-6.33,59.94-17.82c17.55-12.47,27.22-29.5,27.22-48s-9.67-35.49-27.22-48c-16.18-11.49-37.46-17.82-59.94-17.82Zm0,106.26c-33.85,0-62.45-18.54-62.45-40.48S284,172.6,317.81,172.6s62.45,18.54,62.45,40.48-28.6,40.48-62.45,40.48Z"
            transform="translate(-66.88 -39.39)" />
        <path class="cls-1"
            d="M72,79c5.14,14.88,15,28.24,26.52,36.21,14,9.72,32.15,14.64,53.8,14.64a173.28,173.28,0,0,0,24.76-1.9A198.38,198.38,0,0,0,210.77,120c12.07-4,23.35-9.8,34.27-15.44,10.48-5.42,21.32-11,32.52-14.74A100.49,100.49,0,0,1,309.23,85a140.74,140.74,0,0,1,40.33,6.3,144.22,144.22,0,0,1,44.26,21.63c-20.1-8.56-43.06-12.12-63.78-12.12a173.8,173.8,0,0,0-31.25,2.75c-21.69,4-41.39,14-60.44,23.59-3.27,1.65-6.65,3.35-10,5-24.54,12.11-51.25,18.77-75.21,18.77a102.79,102.79,0,0,1-36.91-6.34,77.65,77.65,0,0,1-30.7-21.19c-9-10.21-13.64-23.33-13.68-39,0-1.75,0-3.53.15-5.33m4.61-39.62c-11.46,27.82-16.3,63,5.17,87.25,18.73,21.16,44.57,29.22,71.36,29.22s54.82-8.13,77.42-19.28c22.34-11,44.44-23.53,69.1-28.14A167.36,167.36,0,0,1,330,105.77c41.68,0,90,14.23,106.76,53.19-16.14-37.54-48.18-61.19-85.8-72.49A146.05,146.05,0,0,0,309.23,80,105.07,105.07,0,0,0,276,85.11c-23.25,7.72-43.5,22.5-66.79,30.17A194.6,194.6,0,0,1,176.41,123a169.46,169.46,0,0,1-24,1.84c-18,0-36.11-3.49-51-13.75-20.69-14.31-34.95-47-24.75-71.72Z"
            transform="translate(-66.88 -39.39)" />
        <path class="cls-1"
            d="M186.43,192.33c-11.36,25.09-11.84,54.69-7.29,75,4,17.93,13.76,34.1,23.19,49.75,1.61,2.66,3.27,5.42,4.86,8.12,11.67,19.77,18.11,41.26,18.14,60.51,0,23.06-8.87,41.36-26.5,54.4-10.06,7.44-23,11.21-38.53,11.22,12.13-4.36,23.08-11.42,30.18-20,13.18-15.93,17.46-37.9,12.7-65.28a142.35,142.35,0,0,0-7.82-27.75c-3.93-10-9.65-19.23-15.19-28.18s-10.7-17.32-14.29-26.36c-8.39-21.13-3.88-43,1.39-57.71a111.72,111.72,0,0,1,19.16-33.77m46.93-38c-36.67,13.17-59.76,39.33-70.8,70-7.1,19.77-9.21,41.41-1.33,61.25,7.54,19,22,35.51,29.47,54.52A137.27,137.27,0,0,1,198.26,367c3.53,20.33,2.94,43.62-11.63,61.24-10.8,13-32.28,23-52.64,23a53.39,53.39,0,0,1-17.41-2.76c13.52,4.66,28.82,8,43.69,8,15,0,29.62-3.39,41.53-12.2,41.44-30.66,31.42-84.66,9.7-121.47-10.76-18.24-23-36.28-27.48-56.42-8.19-36.67,1.46-94.73,49.34-111.93Z"
            transform="translate(-66.88 -39.39)" />
    </svg>