<svg id="logo" fill="none" xmlns="http://www.w3.org/2000/svg" viewBox="0 0 369.91 416.99">

        <path class="paths"
            d="M377.75,165.12c-16.18-11.49-37.46-17.82-59.94-17.82s-43.76,6.33-59.93,17.82c-17.56,12.47-27.23,29.5-27.23,48s9.67,35.49,27.23,48c16.17,11.49,37.46,17.82,59.93,17.82s43.76-6.33,59.94-17.82c17.55-12.47,27.22-29.5,27.22-48S395.3,177.59,377.75,165.12Zm-59.94,88.44c-33.85,0-62.45-18.54-62.45-40.48S284,172.6,317.81,172.6s62.45,18.54,62.45,40.48S351.66,253.56,317.81,253.56Z"
            transform="translate(-66.88 -39.39)" />
        <path class="paths"
            d="M351,86.47c-24.22-7.27-50.72-9.43-75-1.36-23.25,7.72-43.5,22.5-66.79,30.17A194.6,194.6,0,0,1,176.41,123c-24.91,3.61-53.43,3-75-11.91-20.69-14.31-34.95-47-24.75-71.72-11.46,27.82-16.3,63,5.17,87.25,37.55,42.43,103.69,32.18,148.78,9.94,22.34-11,44.44-23.53,69.1-28.14,44.92-8.39,116,1.49,137.1,50.52C420.66,121.42,388.62,97.77,351,86.47Z"
            transform="translate(-66.88 -39.39)" />
        <path class="paths"
            d="M184,266.29c-8.19-36.67,1.46-94.73,49.34-111.93-36.67,13.17-59.76,39.33-70.8,70-7.1,19.77-9.21,41.41-1.33,61.25,7.54,19,22,35.51,29.47,54.52A137.27,137.27,0,0,1,198.26,367c3.53,20.33,2.94,43.62-11.63,61.24-14,16.89-45.87,28.53-70,20.2,27.17,9.36,61.52,13.32,85.22-4.22,41.44-30.66,31.42-84.66,9.7-121.47C200.74,304.47,188.52,286.43,184,266.29Z"
            transform="translate(-66.88 -39.39)" />
    </svg>

    