<svg id="pullitofflogo" xmlns="http://www.w3.org/2000/svg" viewBox="0 0 369.91 416.99">
    <path 
        d="M377.75,165.12c-16.18-11.49-37.46-17.82-59.94-17.82s-43.76,6.33-59.93,17.82c-17.56,12.47-27.23,29.5-27.23,48s9.67,35.49,27.23,48c16.17,11.49,37.46,17.82,59.93,17.82s43.76-6.33,59.94-17.82c17.55-12.47,27.22-29.5,27.22-48S395.3,177.59,377.75,165.12Zm-59.94,88.44c-33.85,0-62.45-18.54-62.45-40.48S284,172.6,317.81,172.6s62.45,18.54,62.45,40.48S351.66,253.56,317.81,253.56Zm119-94.6c-21.07-49-92.18-58.91-137.1-50.52-24.66,4.61-46.76,17.12-69.1,28.14-45.09,22.24-111.23,32.49-148.78-9.94-21.47-24.26-16.63-59.43-5.17-87.25-10.2,24.76,4.06,57.41,24.75,71.72C123,126,151.5,126.63,176.41,123a194.6,194.6,0,0,0,32.79-7.74c23.29-7.67,43.54-22.45,66.78-30.17,24.3-8.07,50.8-5.91,75,1.36C388.62,97.77,420.66,121.42,436.8,159ZM211.5,322.71c21.72,36.81,31.74,90.81-9.7,121.47-23.7,17.54-58.05,13.58-85.22,4.22,24.18,8.33,56.07-3.31,70.05-20.2,14.57-17.62,15.16-40.91,11.63-61.24a137.27,137.27,0,0,0-7.56-26.78c-7.49-19-21.93-35.55-29.47-54.52-7.88-19.84-5.77-41.48,1.34-61.25,11-30.72,34.12-56.88,70.79-70-47.88,17.2-57.53,75.26-49.34,111.93C188.52,286.43,200.74,304.47,211.5,322.71Z" 
        transform="translate(-66.88 -39.39)"/>
</svg>


